<svg width="277" height="44" viewBox="0 0 277 44" fill="none" xmlns="http://www.w3.org/2000/svg">
<path d="M2.85547 10V7.9375H9.92188V10L8.09375 10.3516V15.2734H15.0547V10.3516L13.2266 10V7.9375H15.0547H18.4648H20.293V10L18.4648 10.3516V22.5977L20.293 22.9492V25H13.2266V22.9492L15.0547 22.5977V17.9102H8.09375V22.5977L9.92188 22.9492V25H2.85547V22.9492L4.67188 22.5977V10.3516L2.85547 10ZM32.6445 17.5H26.8672V22.375H32.375L32.5273 20.3359H35.1289V25H21.6289V22.9492L23.4453 22.5977V10.3516L21.6289 10V7.9375H23.4453H35.1055V12.6133H32.4805L32.3281 10.5742H26.8672V14.8633H32.6445V17.5ZM36.957 22.9492L38.7734 22.5977V10.3516L36.957 10V7.9375H43.9297V10L42.1953 10.3516V14.9102H43.7305L46.9297 10.3047C47.6094 9.35156 48.2109 8.69141 48.7344 8.32422C49.2578 7.95703 49.9531 7.77344 50.8203 7.77344C51.2188 7.77344 51.5898 7.82813 51.9336 7.9375C52.2773 8.04688 52.5938 8.19141 52.8828 8.37109L52.3086 10.9375C52.0586 10.8828 51.8867 10.8477 51.793 10.832C51.707 10.8086 51.5859 10.7969 51.4297 10.7969C51.0703 10.7969 50.7383 10.8984 50.4336 11.1016C50.1289 11.3047 49.7617 11.6836 49.332 12.2383L46.6602 15.8945L51.3828 22.6562L53.1758 22.9492V25H46.4141V22.9492L47.3867 22.8086L44.1992 18.0156H42.1953V22.5977L43.9297 22.9492V25H36.957V22.9492ZM62.2344 7.9375C64.1875 7.9375 65.7266 8.44141 66.8516 9.44922C67.9844 10.4492 68.5508 11.7617 68.5508 13.3867C68.5508 15.0195 67.9844 16.332 66.8516 17.3242C65.7266 18.3164 64.1875 18.8125 62.2344 18.8125H59.3516V22.5977L61.1797 22.9492V25H54.1133V22.9492L55.9297 22.5977V10.3516L54.1133 10V7.9375H55.9297H62.2344ZM59.3516 16.1758H62.2344C63.1875 16.1758 63.9062 15.918 64.3906 15.4023C64.8828 14.8789 65.1289 14.2148 65.1289 13.4102C65.1289 12.5898 64.8828 11.9141 64.3906 11.3828C63.9062 10.8438 63.1875 10.5742 62.2344 10.5742H59.3516V16.1758ZM66.7109 22.9492L67.9297 22.7734L73.1211 7.9375H76.625L81.7812 22.7734L83 22.9492V25H77.1875V22.9492L78.3711 22.7383L77.6211 20.3945H72.0898L71.3398 22.7383L72.5234 22.9492V25H66.7109V22.9492ZM72.8984 17.875H76.8125L74.8906 11.8633H74.8203L72.8984 17.875ZM97.4141 13.6914H94.8711L94.5195 11.418C94.1836 11.082 93.7578 10.8164 93.2422 10.6211C92.7344 10.4258 92.1328 10.3281 91.4375 10.3281C89.9531 10.3281 88.8086 10.8672 88.0039 11.9453C87.207 13.0234 86.8086 14.4297 86.8086 16.1641V16.7617C86.8086 18.4961 87.207 19.9062 88.0039 20.9922C88.8008 22.0781 89.9258 22.6211 91.3789 22.6211C92.0508 22.6211 92.6641 22.5234 93.2188 22.3281C93.7812 22.1328 94.2148 21.8672 94.5195 21.5312L94.8711 19.2578H97.4141V22.6328C96.7266 23.4297 95.8477 24.0664 94.7773 24.543C93.7148 25.0117 92.5234 25.2461 91.2031 25.2461C88.9141 25.2461 87.0391 24.4531 85.5781 22.8672C84.1172 21.2812 83.3867 19.2461 83.3867 16.7617V16.1875C83.3867 13.7109 84.1133 11.6758 85.5664 10.082C87.0195 8.48828 88.8984 7.69141 91.2031 7.69141C92.5234 7.69141 93.7148 7.93359 94.7773 8.41797C95.8398 8.89453 96.7188 9.52734 97.4141 10.3164V13.6914ZM114.594 16.5977C114.594 19.0977 113.879 21.1641 112.449 22.7969C111.02 24.4297 109.148 25.2461 106.836 25.2461C104.531 25.2461 102.668 24.4297 101.246 22.7969C99.832 21.1641 99.125 19.0977 99.125 16.5977V16.3398C99.125 13.8555 99.832 11.793 101.246 10.1523C102.66 8.51172 104.52 7.69141 106.824 7.69141C109.137 7.69141 111.008 8.51172 112.438 10.1523C113.875 11.793 114.594 13.8555 114.594 16.3398V16.5977ZM111.184 16.3164C111.184 14.5508 110.816 13.1172 110.082 12.0156C109.348 10.9141 108.262 10.3633 106.824 10.3633C105.387 10.3633 104.312 10.9102 103.602 12.0039C102.898 13.0977 102.547 14.5352 102.547 16.3164V16.5977C102.547 18.3945 102.902 19.8438 103.613 20.9453C104.332 22.0391 105.406 22.5859 106.836 22.5859C108.281 22.5859 109.367 22.0391 110.094 20.9453C110.82 19.8438 111.184 18.3945 111.184 16.5977V16.3164ZM123.547 7.9375C125.555 7.9375 127.121 8.32812 128.246 9.10938C129.371 9.89062 129.934 11.0586 129.934 12.6133C129.934 13.4023 129.723 14.1094 129.301 14.7344C128.887 15.3516 128.281 15.8164 127.484 16.1289C128.508 16.3477 129.273 16.8164 129.781 17.5352C130.297 18.2539 130.555 19.0859 130.555 20.0312C130.555 21.6641 130.016 22.9023 128.938 23.7461C127.859 24.582 126.332 25 124.355 25H115.965V22.9492L117.781 22.5977V10.3516L115.965 10V7.9375H117.781H123.547ZM121.203 17.4531V22.375H124.355C125.262 22.375 125.953 22.1797 126.43 21.7891C126.906 21.3906 127.145 20.8047 127.145 20.0312C127.145 19.1953 126.941 18.5586 126.535 18.1211C126.129 17.6758 125.488 17.4531 124.613 17.4531H121.203ZM121.203 15.0859H123.664C124.578 15.0859 125.281 14.8984 125.773 14.5234C126.266 14.1484 126.512 13.6016 126.512 12.8828C126.512 12.0938 126.262 11.5117 125.762 11.1367C125.27 10.7617 124.531 10.5742 123.547 10.5742H121.203V15.0859ZM145.812 13.6914H143.27L142.918 11.418C142.582 11.082 142.156 10.8164 141.641 10.6211C141.133 10.4258 140.531 10.3281 139.836 10.3281C138.352 10.3281 137.207 10.8672 136.402 11.9453C135.605 13.0234 135.207 14.4297 135.207 16.1641V16.7617C135.207 18.4961 135.605 19.9062 136.402 20.9922C137.199 22.0781 138.324 22.6211 139.777 22.6211C140.449 22.6211 141.062 22.5234 141.617 22.3281C142.18 22.1328 142.613 21.8672 142.918 21.5312L143.27 19.2578H145.812V22.6328C145.125 23.4297 144.246 24.0664 143.176 24.543C142.113 25.0117 140.922 25.2461 139.602 25.2461C137.312 25.2461 135.438 24.4531 133.977 22.8672C132.516 21.2812 131.785 19.2461 131.785 16.7617V16.1875C131.785 13.7109 132.512 11.6758 133.965 10.082C135.418 8.48828 137.297 7.69141 139.602 7.69141C140.922 7.69141 142.113 7.93359 143.176 8.41797C144.238 8.89453 145.117 9.52734 145.812 10.3164V13.6914ZM147.395 22.9492L149.211 22.5977V10.3516L147.395 10V7.9375H154.367V10L152.633 10.3516V14.9102H154.168L157.367 10.3047C158.047 9.35156 158.648 8.69141 159.172 8.32422C159.695 7.95703 160.391 7.77344 161.258 7.77344C161.656 7.77344 162.027 7.82813 162.371 7.9375C162.715 8.04688 163.031 8.19141 163.32 8.37109L162.746 10.9375C162.496 10.8828 162.324 10.8477 162.23 10.832C162.145 10.8086 162.023 10.7969 161.867 10.7969C161.508 10.7969 161.176 10.8984 160.871 11.1016C160.566 11.3047 160.199 11.6836 159.77 12.2383L157.098 15.8945L161.82 22.6562L163.613 22.9492V25H156.852V22.9492L157.824 22.8086L154.637 18.0156H152.633V22.5977L154.367 22.9492V25H147.395V22.9492ZM171.77 7.9375V10L169.941 10.3516V18.25L170.012 18.2734L176.891 11.3008V10.3516L175.074 10V7.9375H176.891H180.324H182.141V10L180.324 10.3516V22.5977L182.141 22.9492V25H175.074V22.9492L176.891 22.5977V14.8867L176.82 14.8633L169.941 21.8477V22.5977L171.77 22.9492V25H164.703V22.9492L166.531 22.5977V10.3516L164.703 10V7.9375H166.531H169.941H171.77ZM194.387 17.5H188.609V22.375H194.117L194.27 20.3359H196.871V25H183.371V22.9492L185.188 22.5977V10.3516L183.371 10V7.9375H185.188H196.848V12.6133H194.223L194.07 10.5742H188.609V14.8633H194.387V17.5ZM204.676 22.9492L206.492 22.5977V10.3516L204.676 10V7.9375H217.613V12.2617H214.988L214.848 10.5742H209.961V14.2539H212.891C214.867 14.2539 216.43 14.7383 217.578 15.707C218.727 16.668 219.301 17.9531 219.301 19.5625C219.301 21.1953 218.723 22.5117 217.566 23.5117C216.41 24.5039 214.852 25 212.891 25H204.676V22.9492ZM209.961 16.8906V22.375H212.891C213.852 22.375 214.59 22.1094 215.105 21.5781C215.629 21.0391 215.891 20.3594 215.891 19.5391C215.891 18.7578 215.633 18.1211 215.117 17.6289C214.602 17.1367 213.859 16.8906 212.891 16.8906H209.961ZM220.438 22.9492L221.656 22.7734L226.848 7.9375H230.352L235.508 22.7734L236.727 22.9492V25H230.914V22.9492L232.098 22.7383L231.348 20.3945H225.816L225.066 22.7383L226.25 22.9492V25H220.438V22.9492ZM226.625 17.875H230.539L228.617 11.8633H228.547L226.625 17.875ZM237.863 10V7.9375H244.93V10L243.102 10.3516V15.2734H250.062V10.3516L248.234 10V7.9375H250.062H253.473H255.301V10L253.473 10.3516V22.5977L255.301 22.9492V25H248.234V22.9492L250.062 22.5977V17.9102H243.102V22.5977L244.93 22.9492V25H237.863V22.9492L239.68 22.5977V10.3516L237.863 10ZM263.855 7.9375V10L262.027 10.3516V18.25L262.098 18.2734L268.977 11.3008V10.3516L267.16 10V7.9375H268.977H272.41H274.227V10L272.41 10.3516V22.5977L274.227 22.9492V25H267.16V22.9492L268.977 22.5977V14.8867L268.906 14.8633L262.027 21.8477V22.5977L263.855 22.9492V25H256.789V22.9492L258.617 22.5977V10.3516L256.789 10V7.9375H258.617H262.027H263.855Z" fill="black"/>
<path d="M67.2676 38.7402H67.2969L69.0205 34.7168H70.2266H71.0225V35.3369L70.2266 35.4736V39.248L71.0225 39.3848V40H68.4688V39.3848L69.2646 39.248V36.333L69.2354 36.3232L67.6143 40H66.9502L65.2998 36.2451L65.2705 36.2549V39.248L66.0664 39.3848V40H63.5127V39.3848L64.3086 39.248V35.4736L63.5127 35.3369V34.7168H64.3086H65.5488L67.2676 38.7402ZM74.3037 40.1025C73.568 40.1025 72.9821 39.8584 72.5459 39.3701C72.113 38.8786 71.8965 38.2422 71.8965 37.4609V37.2461C71.8965 36.4941 72.1195 35.8691 72.5654 35.3711C73.0146 34.8698 73.5452 34.6191 74.1572 34.6191C74.8669 34.6191 75.404 34.834 75.7686 35.2637C76.1364 35.6934 76.3203 36.2663 76.3203 36.9824V37.583H72.8926L72.8779 37.6074C72.8877 38.1152 73.0163 38.5335 73.2637 38.8623C73.5111 39.1878 73.8577 39.3506 74.3037 39.3506C74.6292 39.3506 74.9141 39.305 75.1582 39.2139C75.4056 39.1195 75.6188 38.9909 75.7979 38.8281L76.1738 39.4531C75.985 39.6354 75.7344 39.79 75.4219 39.917C75.1126 40.0407 74.7399 40.1025 74.3037 40.1025ZM74.1572 35.376C73.835 35.376 73.5599 35.5127 73.332 35.7861C73.1042 36.0563 72.9642 36.3965 72.9121 36.8066L72.9219 36.8311H75.3584V36.7041C75.3584 36.3265 75.2575 36.0107 75.0557 35.7568C74.8538 35.5029 74.5544 35.376 74.1572 35.376ZM79.6455 39.3506C79.9645 39.3506 80.2445 39.2529 80.4854 39.0576C80.7295 38.859 80.8516 38.6165 80.8516 38.3301H81.7158L81.7256 38.3594C81.7419 38.8151 81.5384 39.2204 81.1152 39.5752C80.6953 39.9268 80.2054 40.1025 79.6455 40.1025C78.8773 40.1025 78.2897 39.8519 77.8828 39.3506C77.4792 38.8493 77.2773 38.2194 77.2773 37.4609V37.2559C77.2773 36.5039 77.4808 35.8773 77.8877 35.376C78.2946 34.8714 78.8805 34.6191 79.6455 34.6191C80.0687 34.6191 80.4479 34.6891 80.7832 34.8291C81.1217 34.9691 81.4017 35.1611 81.623 35.4053L81.667 36.5771H80.9004L80.6904 35.7471C80.5765 35.6364 80.43 35.5469 80.251 35.4785C80.0719 35.4102 79.8701 35.376 79.6455 35.376C79.141 35.376 78.7796 35.5583 78.5615 35.9229C78.3467 36.2842 78.2393 36.7285 78.2393 37.2559V37.4609C78.2393 38.0013 78.3467 38.4521 78.5615 38.8135C78.7764 39.1715 79.1377 39.3506 79.6455 39.3506ZM87.6094 34.7168V36.2891H86.7842L86.7109 35.4639H85.5781V39.248L86.374 39.3848V40H83.8203V39.3848L84.6162 39.248V35.4639H83.5029L83.4297 36.2891H82.6094V34.7168H87.6094ZM88.2539 37.3096C88.2539 36.5283 88.4655 35.8854 88.8887 35.3809C89.3118 34.873 89.8864 34.6191 90.6123 34.6191C91.3415 34.6191 91.9176 34.8714 92.3408 35.376C92.7673 35.8805 92.9805 36.5251 92.9805 37.3096V37.417C92.9805 38.2048 92.7689 38.8493 92.3457 39.3506C91.9225 39.8519 91.348 40.1025 90.6221 40.1025C89.8896 40.1025 89.3118 39.8519 88.8887 39.3506C88.4655 38.846 88.2539 38.2015 88.2539 37.417V37.3096ZM89.2158 37.417C89.2158 37.9769 89.333 38.4391 89.5674 38.8037C89.805 39.1683 90.1566 39.3506 90.6221 39.3506C91.0778 39.3506 91.4245 39.1683 91.6621 38.8037C91.8997 38.4391 92.0186 37.9769 92.0186 37.417V37.3096C92.0186 36.7562 91.8997 36.2956 91.6621 35.9277C91.4245 35.5599 91.0745 35.376 90.6123 35.376C90.1501 35.376 89.8018 35.5599 89.5674 35.9277C89.333 36.2956 89.2158 36.7562 89.2158 37.3096V37.417ZM96.6572 39.248C96.9274 38.9355 97.1341 38.61 97.2773 38.2715C97.4206 37.9297 97.5166 37.4072 97.5654 36.7041L97.6143 35.4688L96.8477 35.3369V34.7168H101.096H101.892V35.3369L101.096 35.4736V39.248H101.799L101.701 41.5527H100.837V40H97.1992V41.5527H96.335L96.2422 39.248H96.6572ZM98.5273 36.7041C98.4915 37.29 98.4069 37.7897 98.2734 38.2031C98.1432 38.6165 97.974 38.9648 97.7656 39.248H100.134V35.5713H98.5713L98.5273 36.7041ZM104.724 35.4785V36.9727C104.724 38.0143 104.585 38.7793 104.309 39.2676C104.035 39.7559 103.565 40 102.897 40H102.624L102.639 39.1797L102.839 39.1748C103.184 39.1748 103.423 39.0072 103.557 38.6719C103.693 38.3366 103.762 37.7702 103.762 36.9727V35.4736L102.966 35.3369V34.7168H107.478H108.273V35.3369L107.478 35.4736V39.248L108.273 39.3848V40H105.72V39.3848L106.516 39.248V35.4785H104.724ZM112.082 39.3848L112.878 39.248V37.9492H111.574L110.324 40H109.03V39.3848L109.724 39.2822L110.627 37.8076C110.292 37.6872 110.033 37.4967 109.851 37.2363C109.672 36.9759 109.582 36.6748 109.582 36.333C109.582 35.8577 109.763 35.4704 110.124 35.1709C110.485 34.8682 110.98 34.7168 111.608 34.7168H113.84H114.636V35.3369L113.84 35.4736V39.248L114.636 39.3848V40H112.082V39.3848ZM110.549 36.3428C110.549 36.5771 110.629 36.7773 110.788 36.9434C110.951 37.1094 111.192 37.1924 111.511 37.1924H112.878V35.4639H111.608C111.26 35.4639 110.996 35.5518 110.817 35.7275C110.638 35.9001 110.549 36.1051 110.549 36.3428ZM118.298 39.248C118.568 38.9355 118.775 38.61 118.918 38.2715C119.061 37.9297 119.157 37.4072 119.206 36.7041L119.255 35.4688L118.488 35.3369V34.7168H122.736H123.532V35.3369L122.736 35.4736V39.248H123.439L123.342 41.5527H122.478V40H118.84V41.5527H117.976L117.883 39.248H118.298ZM120.168 36.7041C120.132 37.29 120.048 37.7897 119.914 38.2031C119.784 38.6165 119.615 38.9648 119.406 39.248H121.774V35.5713H120.212L120.168 36.7041ZM129.382 35.3369L128.908 35.4102L126.896 40.8105C126.763 41.1654 126.571 41.4746 126.32 41.7383C126.07 42.002 125.733 42.1338 125.31 42.1338C125.235 42.1338 125.137 42.124 125.017 42.1045C124.896 42.0882 124.803 42.0719 124.738 42.0557L124.836 41.2988C124.816 41.2956 124.873 41.2988 125.007 41.3086C125.144 41.3184 125.23 41.3232 125.266 41.3232C125.471 41.3232 125.637 41.2337 125.764 41.0547C125.891 40.8789 126.001 40.6755 126.096 40.4443L126.325 39.8975L124.582 35.415L124.099 35.3369V34.7168H126.232V35.3369L125.637 35.4346L126.55 38.042L126.726 38.7158H126.755L127.854 35.4346L127.253 35.3369V34.7168H129.382V35.3369ZM130.075 35.3369V34.7168H131.833H132.629V35.3369L131.833 35.4736V39.248H133.688V34.7168H134.65V39.248H136.511V35.4736L135.715 35.3369V34.7168H137.473H138.269V35.3369L137.473 35.4736V39.248L138.269 39.3848V40H130.075V39.3848L130.871 39.248V35.4736L130.075 35.3369ZM141.589 40.1025C140.853 40.1025 140.267 39.8584 139.831 39.3701C139.398 38.8786 139.182 38.2422 139.182 37.4609V37.2461C139.182 36.4941 139.405 35.8691 139.851 35.3711C140.3 34.8698 140.83 34.6191 141.442 34.6191C142.152 34.6191 142.689 34.834 143.054 35.2637C143.422 35.6934 143.605 36.2663 143.605 36.9824V37.583H140.178L140.163 37.6074C140.173 38.1152 140.301 38.5335 140.549 38.8623C140.796 39.1878 141.143 39.3506 141.589 39.3506C141.914 39.3506 142.199 39.305 142.443 39.2139C142.691 39.1195 142.904 38.9909 143.083 38.8281L143.459 39.4531C143.27 39.6354 143.02 39.79 142.707 39.917C142.398 40.0407 142.025 40.1025 141.589 40.1025ZM141.442 35.376C141.12 35.376 140.845 35.5127 140.617 35.7861C140.389 36.0563 140.249 36.3965 140.197 36.8066L140.207 36.8311H142.644V36.7041C142.644 36.3265 142.543 36.0107 142.341 35.7568C142.139 35.5029 141.84 35.376 141.442 35.376ZM147.473 34.7168C148.169 34.7168 148.71 34.8389 149.094 35.083C149.478 35.3239 149.67 35.6868 149.67 36.1719C149.67 36.4193 149.595 36.6406 149.445 36.8359C149.296 37.028 149.084 37.1745 148.811 37.2754C149.139 37.3568 149.396 37.5098 149.582 37.7344C149.768 37.9557 149.86 38.2096 149.86 38.4961C149.86 38.9909 149.68 39.3652 149.318 39.6191C148.96 39.873 148.457 40 147.81 40H144.597V39.3848L145.393 39.248V35.4736L144.597 35.3369V34.7168H145.393H147.473ZM146.354 37.6855V39.2578H147.81C148.168 39.2578 148.438 39.1911 148.62 39.0576C148.802 38.9209 148.894 38.7256 148.894 38.4717C148.894 38.221 148.802 38.0273 148.62 37.8906C148.438 37.7539 148.168 37.6855 147.81 37.6855H146.354ZM146.354 36.9482H147.478C147.884 36.9482 148.19 36.888 148.396 36.7676C148.604 36.6471 148.708 36.4648 148.708 36.2207C148.708 35.9701 148.604 35.7812 148.396 35.6543C148.19 35.5273 147.883 35.4639 147.473 35.4639H146.354V36.9482ZM150.808 35.3369V34.7168H153.361V35.3369L152.565 35.4736V37.002H154.914V35.4736L154.118 35.3369V34.7168H154.914H155.881H156.677V35.3369L155.881 35.4736V39.248L156.677 39.3848V40H154.118V39.3848L154.914 39.248V37.7539H152.565V39.248L153.361 39.3848V40H150.808V39.3848L151.604 39.248V35.4736L150.808 35.3369ZM157.59 37.3096C157.59 36.5283 157.801 35.8854 158.225 35.3809C158.648 34.873 159.222 34.6191 159.948 34.6191C160.677 34.6191 161.254 34.8714 161.677 35.376C162.103 35.8805 162.316 36.5251 162.316 37.3096V37.417C162.316 38.2048 162.105 38.8493 161.682 39.3506C161.258 39.8519 160.684 40.1025 159.958 40.1025C159.226 40.1025 158.648 39.8519 158.225 39.3506C157.801 38.846 157.59 38.2015 157.59 37.417V37.3096ZM158.552 37.417C158.552 37.9769 158.669 38.4391 158.903 38.8037C159.141 39.1683 159.493 39.3506 159.958 39.3506C160.414 39.3506 160.76 39.1683 160.998 38.8037C161.236 38.4391 161.354 37.9769 161.354 37.417V37.3096C161.354 36.7562 161.236 36.2956 160.998 35.9277C160.76 35.5599 160.41 35.376 159.948 35.376C159.486 35.376 159.138 35.5599 158.903 35.9277C158.669 36.2956 158.552 36.7562 158.552 37.3096V37.417ZM163.913 35.4736L163.117 35.3369V34.7168H167.272V34.7266H167.429V36.0791H166.804L166.735 35.4785H164.875V39.248L165.671 39.3848V40H163.117V39.3848L163.913 39.248V35.4736ZM168.264 37.3096C168.264 36.5283 168.475 35.8854 168.898 35.3809C169.322 34.873 169.896 34.6191 170.622 34.6191C171.351 34.6191 171.927 34.8714 172.351 35.376C172.777 35.8805 172.99 36.5251 172.99 37.3096V37.417C172.99 38.2048 172.779 38.8493 172.355 39.3506C171.932 39.8519 171.358 40.1025 170.632 40.1025C169.899 40.1025 169.322 39.8519 168.898 39.3506C168.475 38.846 168.264 38.2015 168.264 37.417V37.3096ZM169.226 37.417C169.226 37.9769 169.343 38.4391 169.577 38.8037C169.815 39.1683 170.166 39.3506 170.632 39.3506C171.088 39.3506 171.434 39.1683 171.672 38.8037C171.91 38.4391 172.028 37.9769 172.028 37.417V37.3096C172.028 36.7562 171.91 36.2956 171.672 35.9277C171.434 35.5599 171.084 35.376 170.622 35.376C170.16 35.376 169.812 35.5599 169.577 35.9277C169.343 36.2956 169.226 36.7562 169.226 37.3096V37.417ZM176.369 37.3096C176.369 36.5283 176.581 35.8854 177.004 35.3809C177.427 34.873 178.002 34.6191 178.728 34.6191C179.457 34.6191 180.033 34.8714 180.456 35.376C180.882 35.8805 181.096 36.5251 181.096 37.3096V37.417C181.096 38.2048 180.884 38.8493 180.461 39.3506C180.038 39.8519 179.463 40.1025 178.737 40.1025C178.005 40.1025 177.427 39.8519 177.004 39.3506C176.581 38.846 176.369 38.2015 176.369 37.417V37.3096ZM177.331 37.417C177.331 37.9769 177.448 38.4391 177.683 38.8037C177.92 39.1683 178.272 39.3506 178.737 39.3506C179.193 39.3506 179.54 39.1683 179.777 38.8037C180.015 38.4391 180.134 37.9769 180.134 37.417V37.3096C180.134 36.7562 180.015 36.2956 179.777 35.9277C179.54 35.5599 179.19 35.376 178.728 35.376C178.265 35.376 177.917 35.5599 177.683 35.9277C177.448 36.2956 177.331 36.7562 177.331 37.3096V37.417ZM186.818 34.7168V36.2891H185.993L185.92 35.4639H184.787V39.248L185.583 39.3848V40H183.029V39.3848L183.825 39.248V35.4639H182.712L182.639 36.2891H181.818V34.7168H186.818ZM187.546 39.248C187.816 38.9355 188.023 38.61 188.166 38.2715C188.309 37.9297 188.405 37.4072 188.454 36.7041L188.503 35.4688L187.736 35.3369V34.7168H191.984H192.78V35.3369L191.984 35.4736V39.248H192.688L192.59 41.5527H191.726V40H188.088V41.5527H187.224L187.131 39.248H187.546ZM189.416 36.7041C189.38 37.29 189.296 37.7897 189.162 38.2031C189.032 38.6165 188.863 38.9648 188.654 39.248H191.022V35.5713H189.46L189.416 36.7041ZM195.407 34.7168V36.5332H196.716C197.341 36.5332 197.827 36.6927 198.176 37.0117C198.524 37.3275 198.698 37.7393 198.698 38.2471C198.698 38.7581 198.522 39.1781 198.171 39.5068C197.823 39.8356 197.338 40 196.716 40H193.649V39.3848L194.445 39.248V35.4736L193.649 35.3369V34.7168H194.445H195.407ZM198.806 39.3848L199.602 39.248V35.4736L198.806 35.3369V34.7168H200.563V39.248L201.359 39.3848V40H198.806V39.3848ZM195.407 37.2852V39.248H196.716C197.064 39.248 197.32 39.1569 197.482 38.9746C197.648 38.7891 197.731 38.5579 197.731 38.2812C197.731 38.0143 197.648 37.7816 197.482 37.583C197.316 37.3844 197.061 37.2852 196.716 37.2852H195.407ZM196.203 34.7168V35.3369L195.407 35.4736V34.7168H196.203ZM201.936 39.3848L202.502 39.2725L204.06 37.3291L202.551 35.4492L201.984 35.3369V34.7168H204.055V35.3369L203.576 35.3955L204.562 36.665L205.554 35.3906L205.08 35.3369V34.7168H207.165V35.3369L206.599 35.4492L205.09 37.3291L206.643 39.2725L207.214 39.3848V40H205.144V39.3848L205.612 39.3311L204.577 38.0029L203.542 39.3311L204.016 39.3848V40H201.936V39.3848ZM211.335 40C211.306 39.8568 211.283 39.7282 211.267 39.6143C211.25 39.5003 211.239 39.3864 211.232 39.2725C211.047 39.5101 210.814 39.7087 210.534 39.8682C210.257 40.0244 209.961 40.1025 209.646 40.1025C209.095 40.1025 208.677 39.9691 208.391 39.7021C208.104 39.432 207.961 39.0527 207.961 38.5645C207.961 38.0632 208.163 37.6774 208.566 37.4072C208.973 37.1338 209.53 36.9971 210.236 36.9971H211.228V36.3818C211.228 36.0726 211.13 35.8285 210.935 35.6494C210.739 35.4671 210.467 35.376 210.119 35.376C209.878 35.376 209.665 35.4069 209.479 35.4688C209.297 35.5306 209.149 35.6152 209.035 35.7227L208.933 36.2793H208.19V35.2539C208.431 35.0618 208.723 34.9089 209.064 34.7949C209.406 34.6777 209.777 34.6191 210.178 34.6191C210.777 34.6191 211.262 34.7721 211.633 35.0781C212.004 35.3841 212.189 35.8219 212.189 36.3916V38.9355C212.189 39.0039 212.189 39.0706 212.189 39.1357C212.193 39.2008 212.198 39.266 212.204 39.3311L212.595 39.3848V40H211.335ZM209.787 39.2969C210.106 39.2969 210.397 39.2204 210.661 39.0674C210.925 38.9144 211.114 38.7305 211.228 38.5156V37.6465H210.202C209.808 37.6465 209.496 37.7376 209.265 37.9199C209.037 38.1022 208.923 38.3236 208.923 38.584C208.923 38.8151 208.994 38.9925 209.138 39.1162C209.281 39.2367 209.497 39.2969 209.787 39.2969Z" fill="#505050"/>
</svg>
