<svg width="349" height="56" viewBox="0 0 349 56" fill="none" xmlns="http://www.w3.org/2000/svg">
<path d="M0.820312 12.25V9.67188H9.65332V12.25L7.36816 12.6895V18.8418H16.0693V12.6895L13.7842 12.25V9.67188H16.0693H20.332H22.6172V12.25L20.332 12.6895V27.9971L22.6172 28.4365V31H13.7842V28.4365L16.0693 27.9971V22.1377H7.36816V27.9971L9.65332 28.4365V31H0.820312V28.4365L3.09082 27.9971V12.6895L0.820312 12.25ZM38.0566 21.625H30.835V27.7188H37.7197L37.9102 25.1699H41.1621V31H24.2871V28.4365L26.5576 27.9971V12.6895L24.2871 12.25V9.67188H26.5576H41.1328V15.5166H37.8516L37.6611 12.9678H30.835V18.3291H38.0566V21.625ZM43.4473 28.4365L45.7178 27.9971V12.6895L43.4473 12.25V9.67188H52.1631V12.25L49.9951 12.6895V18.3877H51.9141L55.9131 12.6309C56.7627 11.4395 57.5146 10.6143 58.1689 10.1553C58.8232 9.69629 59.6924 9.4668 60.7764 9.4668C61.2744 9.4668 61.7383 9.53516 62.168 9.67188C62.5977 9.80859 62.9932 9.98926 63.3545 10.2139L62.6367 13.4219C62.3242 13.3535 62.1094 13.3096 61.9922 13.29C61.8848 13.2607 61.7334 13.2461 61.5381 13.2461C61.0889 13.2461 60.6738 13.373 60.293 13.627C59.9121 13.8809 59.4531 14.3545 58.916 15.0479L55.5762 19.6182L61.4795 28.0703L63.7207 28.4365V31H55.2686V28.4365L56.4844 28.2607L52.5 22.2695H49.9951V27.9971L52.1631 28.4365V31H43.4473V28.4365ZM75.0439 9.67188C77.4854 9.67188 79.4092 10.3018 80.8154 11.5615C82.2314 12.8115 82.9395 14.4521 82.9395 16.4834C82.9395 18.5244 82.2314 20.165 80.8154 21.4053C79.4092 22.6455 77.4854 23.2656 75.0439 23.2656H71.4404V27.9971L73.7256 28.4365V31H64.8926V28.4365L67.1631 27.9971V12.6895L64.8926 12.25V9.67188H67.1631H75.0439ZM71.4404 19.9697H75.0439C76.2354 19.9697 77.1338 19.6475 77.7393 19.0029C78.3545 18.3486 78.6621 17.5186 78.6621 16.5127C78.6621 15.4873 78.3545 14.6426 77.7393 13.9785C77.1338 13.3047 76.2354 12.9678 75.0439 12.9678H71.4404V19.9697ZM80.6396 28.4365L82.1631 28.2168L88.6523 9.67188H93.0322L99.4775 28.2168L101.001 28.4365V31H93.7354V28.4365L95.2148 28.1729L94.2773 25.2432H87.3633L86.4258 28.1729L87.9053 28.4365V31H80.6396V28.4365ZM88.374 22.0938H93.2666L90.8643 14.5791H90.7764L88.374 22.0938ZM119.019 16.8643H115.84L115.4 14.0225C114.98 13.6025 114.448 13.2705 113.804 13.0264C113.169 12.7822 112.417 12.6602 111.548 12.6602C109.692 12.6602 108.262 13.334 107.256 14.6816C106.26 16.0293 105.762 17.7871 105.762 19.9551V20.7021C105.762 22.8701 106.26 24.6328 107.256 25.9902C108.252 27.3477 109.658 28.0264 111.475 28.0264C112.314 28.0264 113.081 27.9043 113.774 27.6602C114.478 27.416 115.02 27.084 115.4 26.6641L115.84 23.8223H119.019V28.041C118.159 29.0371 117.061 29.833 115.723 30.4287C114.395 31.0146 112.905 31.3076 111.255 31.3076C108.394 31.3076 106.05 30.3164 104.224 28.334C102.397 26.3516 101.484 23.8076 101.484 20.7021V19.9844C101.484 16.8887 102.393 14.3447 104.209 12.3525C106.025 10.3604 108.374 9.36426 111.255 9.36426C112.905 9.36426 114.395 9.66699 115.723 10.2725C117.051 10.8682 118.149 11.6592 119.019 12.6455V16.8643ZM140.493 20.4971C140.493 23.6221 139.6 26.2051 137.812 28.2461C136.025 30.2871 133.687 31.3076 130.796 31.3076C127.915 31.3076 125.586 30.2871 123.809 28.2461C122.041 26.2051 121.157 23.6221 121.157 20.4971V20.1748C121.157 17.0693 122.041 14.4912 123.809 12.4404C125.576 10.3896 127.9 9.36426 130.781 9.36426C133.672 9.36426 136.011 10.3896 137.798 12.4404C139.595 14.4912 140.493 17.0693 140.493 20.1748V20.4971ZM136.23 20.1455C136.23 17.9385 135.771 16.1465 134.854 14.7695C133.936 13.3926 132.578 12.7041 130.781 12.7041C128.984 12.7041 127.642 13.3877 126.753 14.7549C125.874 16.1221 125.435 17.9189 125.435 20.1455V20.4971C125.435 22.7432 125.879 24.5547 126.768 25.9316C127.666 27.2988 129.009 27.9824 130.796 27.9824C132.603 27.9824 133.96 27.2988 134.868 25.9316C135.776 24.5547 136.23 22.7432 136.23 20.4971V20.1455ZM151.685 9.67188C154.194 9.67188 156.152 10.1602 157.559 11.1367C158.965 12.1133 159.668 13.5732 159.668 15.5166C159.668 16.5029 159.404 17.3867 158.877 18.168C158.359 18.9395 157.603 19.5205 156.606 19.9111C157.886 20.1846 158.843 20.7705 159.478 21.6689C160.122 22.5674 160.444 23.6074 160.444 24.7891C160.444 26.8301 159.771 28.3779 158.423 29.4326C157.075 30.4775 155.166 31 152.695 31H142.207V28.4365L144.478 27.9971V12.6895L142.207 12.25V9.67188H144.478H151.685ZM148.755 21.5664V27.7188H152.695C153.828 27.7188 154.692 27.4746 155.288 26.9863C155.884 26.4883 156.182 25.7559 156.182 24.7891C156.182 23.7441 155.928 22.9482 155.42 22.4014C154.912 21.8447 154.111 21.5664 153.018 21.5664H148.755ZM148.755 18.6074H151.831C152.974 18.6074 153.853 18.373 154.468 17.9043C155.083 17.4355 155.391 16.752 155.391 15.8535C155.391 14.8672 155.078 14.1396 154.453 13.6709C153.838 13.2021 152.915 12.9678 151.685 12.9678H148.755V18.6074ZM179.517 16.8643H176.338L175.898 14.0225C175.479 13.6025 174.946 13.2705 174.302 13.0264C173.667 12.7822 172.915 12.6602 172.046 12.6602C170.19 12.6602 168.76 13.334 167.754 14.6816C166.758 16.0293 166.26 17.7871 166.26 19.9551V20.7021C166.26 22.8701 166.758 24.6328 167.754 25.9902C168.75 27.3477 170.156 28.0264 171.973 28.0264C172.812 28.0264 173.579 27.9043 174.272 27.6602C174.976 27.416 175.518 27.084 175.898 26.6641L176.338 23.8223H179.517V28.041C178.657 29.0371 177.559 29.833 176.221 30.4287C174.893 31.0146 173.403 31.3076 171.753 31.3076C168.892 31.3076 166.548 30.3164 164.722 28.334C162.896 26.3516 161.982 23.8076 161.982 20.7021V19.9844C161.982 16.8887 162.891 14.3447 164.707 12.3525C166.523 10.3604 168.872 9.36426 171.753 9.36426C173.403 9.36426 174.893 9.66699 176.221 10.2725C177.549 10.8682 178.647 11.6592 179.517 12.6455V16.8643ZM181.494 28.4365L183.765 27.9971V12.6895L181.494 12.25V9.67188H190.21V12.25L188.042 12.6895V18.3877H189.961L193.96 12.6309C194.81 11.4395 195.562 10.6143 196.216 10.1553C196.87 9.69629 197.739 9.4668 198.823 9.4668C199.321 9.4668 199.785 9.53516 200.215 9.67188C200.645 9.80859 201.04 9.98926 201.401 10.2139L200.684 13.4219C200.371 13.3535 200.156 13.3096 200.039 13.29C199.932 13.2607 199.78 13.2461 199.585 13.2461C199.136 13.2461 198.721 13.373 198.34 13.627C197.959 13.8809 197.5 14.3545 196.963 15.0479L193.623 19.6182L199.526 28.0703L201.768 28.4365V31H193.315V28.4365L194.531 28.2607L190.547 22.2695H188.042V27.9971L190.21 28.4365V31H181.494V28.4365ZM211.963 9.67188V12.25L209.678 12.6895V22.5625L209.766 22.5918L218.364 13.876V12.6895L216.094 12.25V9.67188H218.364H222.656H224.927V12.25L222.656 12.6895V27.9971L224.927 28.4365V31H216.094V28.4365L218.364 27.9971V18.3584L218.276 18.3291L209.678 27.0596V27.9971L211.963 28.4365V31H203.13V28.4365L205.415 27.9971V12.6895L203.13 12.25V9.67188H205.415H209.678H211.963ZM240.234 21.625H233.013V27.7188H239.897L240.088 25.1699H243.34V31H226.465V28.4365L228.735 27.9971V12.6895L226.465 12.25V9.67188H228.735H243.311V15.5166H240.029L239.839 12.9678H233.013V18.3291H240.234V21.625ZM253.096 28.4365L255.366 27.9971V12.6895L253.096 12.25V9.67188H269.268V15.0771H265.986L265.811 12.9678H259.702V17.5674H263.364C265.835 17.5674 267.788 18.1729 269.224 19.3838C270.659 20.585 271.377 22.1914 271.377 24.2031C271.377 26.2441 270.654 27.8896 269.209 29.1396C267.764 30.3799 265.815 31 263.364 31H253.096V28.4365ZM259.702 20.8633V27.7188H263.364C264.565 27.7188 265.488 27.3867 266.133 26.7227C266.787 26.0488 267.114 25.1992 267.114 24.1738C267.114 23.1973 266.792 22.4014 266.147 21.7861C265.503 21.1709 264.575 20.8633 263.364 20.8633H259.702ZM272.798 28.4365L274.321 28.2168L280.811 9.67188H285.19L291.636 28.2168L293.159 28.4365V31H285.894V28.4365L287.373 28.1729L286.436 25.2432H279.521L278.584 28.1729L280.063 28.4365V31H272.798V28.4365ZM280.532 22.0938H285.425L283.022 14.5791H282.935L280.532 22.0938ZM294.58 12.25V9.67188H303.413V12.25L301.128 12.6895V18.8418H309.829V12.6895L307.544 12.25V9.67188H309.829H314.092H316.377V12.25L314.092 12.6895V27.9971L316.377 28.4365V31H307.544V28.4365L309.829 27.9971V22.1377H301.128V27.9971L303.413 28.4365V31H294.58V28.4365L296.851 27.9971V12.6895L294.58 12.25ZM327.07 9.67188V12.25L324.785 12.6895V22.5625L324.873 22.5918L333.472 13.876V12.6895L331.201 12.25V9.67188H333.472H337.764H340.034V12.25L337.764 12.6895V27.9971L340.034 28.4365V31H331.201V28.4365L333.472 27.9971V18.3584L333.384 18.3291L324.785 27.0596V27.9971L327.07 28.4365V31H318.237V28.4365L320.522 27.9971V12.6895L318.237 12.25V9.67188H320.522H324.785H327.07Z" fill="black"/>
<path d="M5.91992 50.2363H5.96094L8.37402 44.6035H10.0625H11.1768V45.4717L10.0625 45.6631V50.9473L11.1768 51.1387V52H7.60156V51.1387L8.71582 50.9473V46.8662L8.6748 46.8525L6.40527 52H5.47559L3.16504 46.7432L3.12402 46.7568V50.9473L4.23828 51.1387V52H0.663086V51.1387L1.77734 50.9473V45.6631L0.663086 45.4717V44.6035H1.77734H3.51367L5.91992 50.2363ZM15.7705 52.1436C14.7406 52.1436 13.9202 51.8018 13.3096 51.1182C12.7035 50.43 12.4004 49.5391 12.4004 48.4453V48.1445C12.4004 47.0918 12.7126 46.2168 13.3369 45.5195C13.9658 44.8177 14.7087 44.4668 15.5654 44.4668C16.5589 44.4668 17.3109 44.7676 17.8213 45.3691C18.3363 45.9707 18.5938 46.7728 18.5938 47.7754V48.6162H13.7949L13.7744 48.6504C13.7881 49.3613 13.9681 49.9469 14.3145 50.4072C14.6608 50.863 15.1462 51.0908 15.7705 51.0908C16.2262 51.0908 16.625 51.027 16.9668 50.8994C17.3132 50.7673 17.6117 50.5872 17.8623 50.3594L18.3887 51.2344C18.1243 51.4896 17.7734 51.7061 17.3359 51.8838C16.903 52.057 16.3812 52.1436 15.7705 52.1436ZM15.5654 45.5264C15.1143 45.5264 14.7292 45.7178 14.4102 46.1006C14.0911 46.4788 13.8952 46.9551 13.8223 47.5293L13.8359 47.5635H17.2471V47.3857C17.2471 46.8571 17.1058 46.415 16.8232 46.0596C16.5407 45.7041 16.1214 45.5264 15.5654 45.5264ZM23.249 51.0908C23.6956 51.0908 24.0876 50.9541 24.4248 50.6807C24.7666 50.4027 24.9375 50.0632 24.9375 49.6621H26.1475L26.1611 49.7031C26.1839 50.3411 25.8991 50.9085 25.3066 51.4053C24.7188 51.8975 24.0329 52.1436 23.249 52.1436C22.1735 52.1436 21.3509 51.7926 20.7812 51.0908C20.2161 50.389 19.9336 49.5072 19.9336 48.4453V48.1582C19.9336 47.1055 20.2184 46.2282 20.7881 45.5264C21.3577 44.82 22.1781 44.4668 23.249 44.4668C23.8415 44.4668 24.3724 44.5648 24.8418 44.7607C25.3158 44.9567 25.7077 45.2256 26.0176 45.5674L26.0791 47.208H25.0059L24.7119 46.0459C24.5524 45.891 24.3473 45.7656 24.0967 45.6699C23.846 45.5742 23.5635 45.5264 23.249 45.5264C22.5426 45.5264 22.0368 45.7816 21.7314 46.292C21.4307 46.7979 21.2803 47.4199 21.2803 48.1582V48.4453C21.2803 49.2018 21.4307 49.833 21.7314 50.3389C22.0322 50.8402 22.5381 51.0908 23.249 51.0908ZM34.3984 44.6035V46.8047H33.2432L33.1406 45.6494H31.5547V50.9473L32.6689 51.1387V52H29.0938V51.1387L30.208 50.9473V45.6494H28.6494L28.5469 46.8047H27.3984V44.6035H34.3984ZM35.3008 48.2334C35.3008 47.1396 35.597 46.2396 36.1895 45.5332C36.7819 44.8223 37.5863 44.4668 38.6025 44.4668C39.6234 44.4668 40.43 44.82 41.0225 45.5264C41.6195 46.2327 41.918 47.1351 41.918 48.2334V48.3838C41.918 49.4867 41.6217 50.389 41.0293 51.0908C40.4368 51.7926 39.6325 52.1436 38.6162 52.1436C37.5908 52.1436 36.7819 51.7926 36.1895 51.0908C35.597 50.3844 35.3008 49.4821 35.3008 48.3838V48.2334ZM36.6475 48.3838C36.6475 49.1676 36.8115 49.8148 37.1396 50.3252C37.4723 50.8356 37.9645 51.0908 38.6162 51.0908C39.2542 51.0908 39.7396 50.8356 40.0723 50.3252C40.4049 49.8148 40.5713 49.1676 40.5713 48.3838V48.2334C40.5713 47.4587 40.4049 46.8138 40.0723 46.2988C39.7396 45.7839 39.2497 45.5264 38.6025 45.5264C37.9554 45.5264 37.4678 45.7839 37.1396 46.2988C36.8115 46.8138 36.6475 47.4587 36.6475 48.2334V48.3838ZM47.0654 50.9473C47.4437 50.5098 47.7331 50.054 47.9336 49.5801C48.1341 49.1016 48.2686 48.3701 48.3369 47.3857L48.4053 45.6562L47.332 45.4717V44.6035H53.2793H54.3936V45.4717L53.2793 45.6631V50.9473H54.2637L54.127 54.1738H52.917V52H47.8242V54.1738H46.6143L46.4844 50.9473H47.0654ZM49.6836 47.3857C49.6335 48.2061 49.515 48.9056 49.3281 49.4844C49.1458 50.0632 48.9089 50.5508 48.6172 50.9473H51.9326V45.7998H49.7451L49.6836 47.3857ZM58.3584 45.6699V47.7617C58.3584 49.2201 58.1647 50.291 57.7773 50.9746C57.3945 51.6582 56.736 52 55.8018 52H55.4189L55.4395 50.8516L55.7197 50.8447C56.2028 50.8447 56.5378 50.61 56.7246 50.1406C56.916 49.6712 57.0117 48.8783 57.0117 47.7617V45.6631L55.8975 45.4717V44.6035H62.2139H63.3281V45.4717L62.2139 45.6631V50.9473L63.3281 51.1387V52H59.7529V51.1387L60.8672 50.9473V45.6699H58.3584ZM68.6602 51.1387L69.7744 50.9473V49.1289H67.9492L66.1992 52H64.3877V51.1387L65.3584 50.9951L66.623 48.9307C66.1536 48.762 65.7913 48.4954 65.5361 48.1309C65.2855 47.7663 65.1602 47.3447 65.1602 46.8662C65.1602 46.2008 65.4131 45.6585 65.9189 45.2393C66.4248 44.8154 67.1175 44.6035 67.9971 44.6035H71.1211H72.2354V45.4717L71.1211 45.6631V50.9473L72.2354 51.1387V52H68.6602V51.1387ZM66.5137 46.8799C66.5137 47.208 66.6253 47.4883 66.8486 47.7207C67.0765 47.9531 67.4137 48.0693 67.8604 48.0693H69.7744V45.6494H67.9971C67.5094 45.6494 67.1403 45.7725 66.8896 46.0186C66.639 46.2601 66.5137 46.5472 66.5137 46.8799ZM77.3623 50.9473C77.7406 50.5098 78.0299 50.054 78.2305 49.5801C78.431 49.1016 78.5654 48.3701 78.6338 47.3857L78.7021 45.6562L77.6289 45.4717V44.6035H83.5762H84.6904V45.4717L83.5762 45.6631V50.9473H84.5605L84.4238 54.1738H83.2139V52H78.1211V54.1738H76.9111L76.7812 50.9473H77.3623ZM79.9805 47.3857C79.9303 48.2061 79.8118 48.9056 79.625 49.4844C79.4427 50.0632 79.2057 50.5508 78.9141 50.9473H82.2295V45.7998H80.042L79.9805 47.3857ZM92.8799 45.4717L92.2168 45.5742L89.4004 53.1348C89.2135 53.6315 88.9447 54.0645 88.5938 54.4336C88.2428 54.8027 87.7712 54.9873 87.1787 54.9873C87.0739 54.9873 86.9372 54.9736 86.7686 54.9463C86.5999 54.9235 86.4701 54.9007 86.3789 54.8779L86.5156 53.8184C86.4883 53.8138 86.568 53.8184 86.7549 53.832C86.9463 53.8457 87.0671 53.8525 87.1172 53.8525C87.4043 53.8525 87.6367 53.7272 87.8145 53.4766C87.9922 53.2305 88.1471 52.9456 88.2793 52.6221L88.6006 51.8564L86.1602 45.5811L85.4834 45.4717V44.6035H88.4707V45.4717L87.6367 45.6084L88.915 49.2588L89.1611 50.2021H89.2021L90.7402 45.6084L89.8994 45.4717V44.6035H92.8799V45.4717ZM93.8506 45.4717V44.6035H96.3115H97.4258V45.4717L96.3115 45.6631V50.9473H98.9092V44.6035H100.256V50.9473H102.86V45.6631L101.746 45.4717V44.6035H104.207H105.321V45.4717L104.207 45.6631V50.9473L105.321 51.1387V52H93.8506V51.1387L94.9648 50.9473V45.6631L93.8506 45.4717ZM109.97 52.1436C108.94 52.1436 108.119 51.8018 107.509 51.1182C106.903 50.43 106.6 49.5391 106.6 48.4453V48.1445C106.6 47.0918 106.912 46.2168 107.536 45.5195C108.165 44.8177 108.908 44.4668 109.765 44.4668C110.758 44.4668 111.51 44.7676 112.021 45.3691C112.535 45.9707 112.793 46.7728 112.793 47.7754V48.6162H107.994L107.974 48.6504C107.987 49.3613 108.167 49.9469 108.514 50.4072C108.86 50.863 109.345 51.0908 109.97 51.0908C110.425 51.0908 110.824 51.027 111.166 50.8994C111.512 50.7673 111.811 50.5872 112.062 50.3594L112.588 51.2344C112.324 51.4896 111.973 51.7061 111.535 51.8838C111.102 52.057 110.58 52.1436 109.97 52.1436ZM109.765 45.5264C109.313 45.5264 108.928 45.7178 108.609 46.1006C108.29 46.4788 108.094 46.9551 108.021 47.5293L108.035 47.5635H111.446V47.3857C111.446 46.8571 111.305 46.415 111.022 46.0596C110.74 45.7041 110.321 45.5264 109.765 45.5264ZM118.207 44.6035C119.182 44.6035 119.939 44.7744 120.477 45.1162C121.014 45.4535 121.283 45.9616 121.283 46.6406C121.283 46.987 121.178 47.2969 120.969 47.5703C120.759 47.8392 120.463 48.0443 120.08 48.1855C120.54 48.2995 120.9 48.5137 121.16 48.8281C121.42 49.138 121.55 49.4935 121.55 49.8945C121.55 50.5872 121.297 51.1113 120.791 51.4668C120.29 51.8223 119.586 52 118.679 52H114.181V51.1387L115.295 50.9473V45.6631L114.181 45.4717V44.6035H115.295H118.207ZM116.642 48.7598V50.9609H118.679C119.18 50.9609 119.558 50.8675 119.813 50.6807C120.069 50.4893 120.196 50.2158 120.196 49.8604C120.196 49.5094 120.069 49.2383 119.813 49.0469C119.558 48.8555 119.18 48.7598 118.679 48.7598H116.642ZM116.642 47.7275H118.214C118.784 47.7275 119.212 47.6432 119.499 47.4746C119.791 47.306 119.937 47.0508 119.937 46.709C119.937 46.3581 119.791 46.0938 119.499 45.916C119.212 45.7383 118.781 45.6494 118.207 45.6494H116.642V47.7275ZM122.876 45.4717V44.6035H126.451V45.4717L125.337 45.6631V47.8027H128.625V45.6631L127.511 45.4717V44.6035H128.625H129.979H131.093V45.4717L129.979 45.6631V50.9473L131.093 51.1387V52H127.511V51.1387L128.625 50.9473V48.8555H125.337V50.9473L126.451 51.1387V52H122.876V51.1387L123.99 50.9473V45.6631L122.876 45.4717ZM132.371 48.2334C132.371 47.1396 132.667 46.2396 133.26 45.5332C133.852 44.8223 134.657 44.4668 135.673 44.4668C136.694 44.4668 137.5 44.82 138.093 45.5264C138.69 46.2327 138.988 47.1351 138.988 48.2334V48.3838C138.988 49.4867 138.692 50.389 138.1 51.0908C137.507 51.7926 136.703 52.1436 135.687 52.1436C134.661 52.1436 133.852 51.7926 133.26 51.0908C132.667 50.3844 132.371 49.4821 132.371 48.3838V48.2334ZM133.718 48.3838C133.718 49.1676 133.882 49.8148 134.21 50.3252C134.543 50.8356 135.035 51.0908 135.687 51.0908C136.325 51.0908 136.81 50.8356 137.143 50.3252C137.475 49.8148 137.642 49.1676 137.642 48.3838V48.2334C137.642 47.4587 137.475 46.8138 137.143 46.2988C136.81 45.7839 136.32 45.5264 135.673 45.5264C135.026 45.5264 134.538 45.7839 134.21 46.2988C133.882 46.8138 133.718 47.4587 133.718 48.2334V48.3838ZM141.224 45.6631L140.109 45.4717V44.6035H145.927V44.6172H146.146V46.5107H145.271L145.175 45.6699H142.57V50.9473L143.685 51.1387V52H140.109V51.1387L141.224 50.9473V45.6631ZM147.314 48.2334C147.314 47.1396 147.611 46.2396 148.203 45.5332C148.796 44.8223 149.6 44.4668 150.616 44.4668C151.637 44.4668 152.444 44.82 153.036 45.5264C153.633 46.2327 153.932 47.1351 153.932 48.2334V48.3838C153.932 49.4867 153.635 50.389 153.043 51.0908C152.451 51.7926 151.646 52.1436 150.63 52.1436C149.604 52.1436 148.796 51.7926 148.203 51.0908C147.611 50.3844 147.314 49.4821 147.314 48.3838V48.2334ZM148.661 48.3838C148.661 49.1676 148.825 49.8148 149.153 50.3252C149.486 50.8356 149.978 51.0908 150.63 51.0908C151.268 51.0908 151.753 50.8356 152.086 50.3252C152.419 49.8148 152.585 49.1676 152.585 48.3838V48.2334C152.585 47.4587 152.419 46.8138 152.086 46.2988C151.753 45.7839 151.263 45.5264 150.616 45.5264C149.969 45.5264 149.481 45.7839 149.153 46.2988C148.825 46.8138 148.661 47.4587 148.661 48.2334V48.3838ZM158.662 48.2334C158.662 47.1396 158.958 46.2396 159.551 45.5332C160.143 44.8223 160.948 44.4668 161.964 44.4668C162.985 44.4668 163.791 44.82 164.384 45.5264C164.981 46.2327 165.279 47.1351 165.279 48.2334V48.3838C165.279 49.4867 164.983 50.389 164.391 51.0908C163.798 51.7926 162.994 52.1436 161.978 52.1436C160.952 52.1436 160.143 51.7926 159.551 51.0908C158.958 50.3844 158.662 49.4821 158.662 48.3838V48.2334ZM160.009 48.3838C160.009 49.1676 160.173 49.8148 160.501 50.3252C160.834 50.8356 161.326 51.0908 161.978 51.0908C162.616 51.0908 163.101 50.8356 163.434 50.3252C163.766 49.8148 163.933 49.1676 163.933 48.3838V48.2334C163.933 47.4587 163.766 46.8138 163.434 46.2988C163.101 45.7839 162.611 45.5264 161.964 45.5264C161.317 45.5264 160.829 45.7839 160.501 46.2988C160.173 46.8138 160.009 47.4587 160.009 48.2334V48.3838ZM173.291 44.6035V46.8047H172.136L172.033 45.6494H170.447V50.9473L171.562 51.1387V52H167.986V51.1387L169.101 50.9473V45.6494H167.542L167.439 46.8047H166.291V44.6035H173.291ZM174.31 50.9473C174.688 50.5098 174.977 50.054 175.178 49.5801C175.378 49.1016 175.513 48.3701 175.581 47.3857L175.649 45.6562L174.576 45.4717V44.6035H180.523H181.638V45.4717L180.523 45.6631V50.9473H181.508L181.371 54.1738H180.161V52H175.068V54.1738H173.858L173.729 50.9473H174.31ZM176.928 47.3857C176.878 48.2061 176.759 48.9056 176.572 49.4844C176.39 50.0632 176.153 50.5508 175.861 50.9473H179.177V45.7998H176.989L176.928 47.3857ZM185.315 44.6035V47.1465H187.147C188.022 47.1465 188.704 47.3698 189.191 47.8164C189.679 48.2585 189.923 48.835 189.923 49.5459C189.923 50.2614 189.677 50.8493 189.185 51.3096C188.697 51.7699 188.018 52 187.147 52H182.854V51.1387L183.969 50.9473V45.6631L182.854 45.4717V44.6035H183.969H185.315ZM190.073 51.1387L191.188 50.9473V45.6631L190.073 45.4717V44.6035H192.534V50.9473L193.648 51.1387V52H190.073V51.1387ZM185.315 48.1992V50.9473H187.147C187.635 50.9473 187.993 50.8197 188.221 50.5645C188.453 50.3047 188.569 49.9811 188.569 49.5938C188.569 49.2201 188.453 48.8942 188.221 48.6162C187.988 48.3382 187.631 48.1992 187.147 48.1992H185.315ZM186.43 44.6035V45.4717L185.315 45.6631V44.6035H186.43ZM194.455 51.1387L195.248 50.9814L197.429 48.2607L195.316 45.6289L194.523 45.4717V44.6035H197.422V45.4717L196.752 45.5537L198.133 47.3311L199.521 45.5469L198.857 45.4717V44.6035H201.776V45.4717L200.983 45.6289L198.871 48.2607L201.045 50.9814L201.845 51.1387V52H198.946V51.1387L199.603 51.0635L198.153 49.2041L196.704 51.0635L197.367 51.1387V52H194.455V51.1387ZM207.614 52C207.573 51.7995 207.541 51.6195 207.519 51.46C207.496 51.3005 207.48 51.141 207.471 50.9814C207.211 51.3141 206.885 51.5921 206.493 51.8154C206.106 52.0342 205.691 52.1436 205.249 52.1436C204.479 52.1436 203.893 51.9567 203.492 51.583C203.091 51.2048 202.891 50.6738 202.891 49.9902C202.891 49.2884 203.173 48.7484 203.738 48.3701C204.308 47.9873 205.087 47.7959 206.076 47.7959H207.464V46.9346C207.464 46.5016 207.327 46.1598 207.054 45.9092C206.78 45.654 206.4 45.5264 205.912 45.5264C205.575 45.5264 205.276 45.5697 205.017 45.6562C204.761 45.7428 204.554 45.8613 204.395 46.0117L204.251 46.791H203.212V45.3555C203.549 45.0866 203.957 44.8724 204.436 44.7129C204.914 44.5488 205.434 44.4668 205.994 44.4668C206.833 44.4668 207.512 44.681 208.031 45.1094C208.551 45.5378 208.811 46.1507 208.811 46.9482V50.5098C208.811 50.6055 208.811 50.6989 208.811 50.79C208.815 50.8812 208.822 50.9723 208.831 51.0635L209.378 51.1387V52H207.614ZM205.447 51.0156C205.894 51.0156 206.302 50.9085 206.671 50.6943C207.04 50.4801 207.304 50.2227 207.464 49.9219V48.7051H206.028C205.477 48.7051 205.039 48.8327 204.716 49.0879C204.397 49.3431 204.237 49.653 204.237 50.0176C204.237 50.3411 204.338 50.5895 204.538 50.7627C204.739 50.9313 205.042 51.0156 205.447 51.0156Z" fill="#505050"/>
</svg>
