<svg width="42" height="21" viewBox="0 0 42 21" fill="none" xmlns="http://www.w3.org/2000/svg">
<path d="M40.9452 17.8682C40.8348 17.7102 40.1518 16.4418 36.8654 13.8347C33.425 11.1046 33.8871 11.5479 38.0311 6.82745C40.5549 3.95258 41.5639 2.19693 41.2481 1.4464C40.9477 0.730973 39.0914 0.919704 39.0914 0.919704L32.9192 0.950428C32.9192 0.950428 32.4622 0.897759 32.1207 1.07113C31.7895 1.2423 31.5764 1.63732 31.5764 1.63732C31.5764 1.63732 30.5982 3.8626 29.2939 5.75431C26.5441 9.7462 25.4426 9.95688 24.9933 9.70889C23.9483 9.13173 24.2102 7.38706 24.2102 6.14933C24.2102 2.28033 24.8957 0.66733 22.8726 0.250365C22.1999 0.112108 21.7069 0.0199369 19.9893 0.00457502C17.7864 -0.015176 15.9198 0.0111587 14.8645 0.452264C14.161 0.746334 13.6193 1.40251 13.9505 1.43981C14.3587 1.4859 15.283 1.65269 15.7734 2.22327C16.4076 2.95845 16.3845 4.61314 16.3845 4.61314C16.3845 4.61314 16.7491 9.16684 15.5347 9.73303C14.7002 10.1215 13.5577 9.32924 11.1057 5.70603C9.85022 3.85163 8.90025 1.79972 8.90025 1.79972C8.90025 1.79972 8.71795 1.41787 8.39188 1.21377C7.99649 0.96579 7.44191 0.886786 7.44191 0.886786L1.57261 0.91751C1.57261 0.91751 0.691963 0.939456 0.368458 1.26644C0.0808984 1.55832 0.345351 2.15963 0.345351 2.15963C0.345351 2.15963 4.94117 11.3482 10.1429 15.9809C14.9159 20.2274 20.3333 19.9487 20.3333 19.9487H22.7878C22.7878 19.9487 23.5298 19.8785 23.9073 19.5295C24.2564 19.2091 24.2436 18.6078 24.2436 18.6078C24.2436 18.6078 24.1948 15.7922 25.725 15.3774C27.2322 14.9692 29.1681 18.0987 31.2195 19.3035C32.7703 20.2142 33.9487 20.0145 33.9487 20.0145L39.4355 19.9487C39.4355 19.9487 42.3059 19.7973 40.9452 17.8682Z" fill="black"/>
</svg>
