<svg width="20" height="31" viewBox="0 0 20 31" fill="none" xmlns="http://www.w3.org/2000/svg">
<path d="M19.1509 0.00625206L14.5919 0C9.47004 0 6.16007 2.90252 6.16007 7.39494V10.8045H1.57623C1.18013 10.8045 0.859375 11.079 0.859375 11.4175V16.3576C0.859375 16.6961 1.1805 16.9703 1.57623 16.9703H6.16007V29.4356C6.16007 29.7742 6.48083 30.0483 6.87693 30.0483H12.8575C13.2536 30.0483 13.5744 29.7739 13.5744 29.4356V16.9703H18.934C19.3301 16.9703 19.6508 16.6961 19.6508 16.3576L19.653 11.4175C19.653 11.255 19.5773 11.0993 19.4431 10.9842C19.3089 10.8692 19.126 10.8045 18.9358 10.8045H13.5744V7.91417C13.5744 6.52496 13.9617 5.81973 16.079 5.81973L19.1501 5.81879C19.5459 5.81879 19.8666 5.54433 19.8666 5.20609V0.618954C19.8666 0.28103 19.5462 0.00687727 19.1509 0.00625206Z" fill="black"/>
</svg>
