<svg width="27" height="33" viewBox="0 0 27 33" fill="none" xmlns="http://www.w3.org/2000/svg">
<path d="M22.3769 26.584H19.6876C19.4231 26.584 19.209 26.7981 19.209 27.0626C19.209 27.3272 19.4231 27.5413 19.6876 27.5413H22.3769C22.6414 27.5413 22.8556 27.3272 22.8556 27.0626C22.8493 26.7981 22.6414 26.584 22.3769 26.584Z" fill="black"/>
<path d="M17.4579 26.584H6.5685C6.30398 26.584 6.08984 26.7981 6.08984 27.0626C6.08984 27.3272 6.30398 27.5413 6.5685 27.5413H17.4579C17.7224 27.5413 17.9366 27.3272 17.9366 27.0626C17.9366 26.7981 17.7224 26.584 17.4579 26.584Z" fill="black"/>
<path d="M22.3767 19.2847H6.5685C6.30398 19.2847 6.08984 19.4988 6.08984 19.7633C6.08984 20.0278 6.30398 20.242 6.5685 20.242H22.3767C22.6412 20.242 22.8554 20.0278 22.8554 19.7633C22.8554 19.4988 22.6412 19.2847 22.3767 19.2847Z" fill="black"/>
<path d="M22.1054 13.3581H21.6393C21.463 10.0642 19.0508 7.35604 15.9017 6.71363L15.9962 5.8319C16.0277 5.54219 15.9332 5.25877 15.738 5.03834C15.5428 4.8242 15.2656 4.69824 14.9759 4.69824H13.9556C13.6659 4.69824 13.3888 4.8242 13.1936 5.03834C12.9983 5.25247 12.9038 5.54219 12.9353 5.8319L13.0298 6.71363C9.88076 7.35604 7.46859 10.0642 7.29224 13.3581H6.82618C6.41681 13.3581 6.08301 13.6919 6.08301 14.1013V15.0901C6.08301 15.4995 6.41681 15.8333 6.82618 15.8333H22.1054C22.5147 15.8333 22.8485 15.4995 22.8485 15.0901V14.1013C22.8485 13.6919 22.521 13.3581 22.1054 13.3581ZM13.9115 5.68075C13.9241 5.66815 13.943 5.66185 13.9619 5.66185H14.9822C15.0011 5.66185 15.02 5.66815 15.0326 5.68075C15.0452 5.69334 15.0515 5.71224 15.0515 5.73113L14.9633 6.58767C14.7996 6.57508 14.6421 6.56878 14.4784 6.56878C14.3146 6.56878 14.1509 6.57508 13.9934 6.58767L13.8926 5.73113C13.8926 5.71224 13.8989 5.69334 13.9115 5.68075ZM21.8975 14.876H7.04662V14.3154H9.06201C9.32653 14.3154 9.54066 14.1013 9.54066 13.8368C9.54066 13.5723 9.32653 13.3581 9.06201 13.3581H8.25585C8.45739 10.1083 11.1719 7.52609 14.4721 7.52609C17.7723 7.52609 20.4868 10.1083 20.6883 13.3581H11.2852C11.0207 13.3581 10.8066 13.5723 10.8066 13.8368C10.8066 14.1013 11.0207 14.3154 11.2852 14.3154H21.8975V14.876Z" fill="black"/>
<path d="M25.7907 0H3.14905C2.48145 0 1.93352 0.547934 1.93352 1.21553V2.07837H1.48635C0.667598 2.07837 0 2.74597 0 3.57102C0 4.39607 0.667598 5.05737 1.48635 5.05737H1.93352V7.10425H1.48635C0.667598 7.10425 0 7.77185 0 8.5906C0 9.40936 0.667598 10.077 1.48635 10.077H1.93352V12.1238H1.48635C0.667598 12.1238 0 12.7914 0 13.6102C0 14.4289 0.667598 15.0965 1.48635 15.0965H1.93352V17.1434H1.48635C0.667598 17.1434 0 17.811 0 18.6298C0 19.4485 0.667598 20.1161 1.48635 20.1161H1.93352V22.1693H1.48635C0.667598 22.1693 0 22.8369 0 23.6557C0 24.4744 0.667598 25.142 1.48635 25.142H1.93352V27.1889H1.48635C0.667598 27.1889 0 27.8565 0 28.6752C0 29.494 0.667598 30.1679 1.48635 30.1679H1.93352V31.0307C1.93352 31.7046 2.48145 32.2463 3.14905 32.2463H25.7844C26.4583 32.2463 26.9999 31.6983 26.9999 31.0307V1.21553C27.0062 0.547934 26.4583 0 25.7907 0ZM1.93352 4.10006H1.48635C1.19034 4.10006 0.951013 3.86073 0.951013 3.56472C0.951013 3.26871 1.19034 3.02939 1.48635 3.02939H1.93352V4.10006ZM1.93352 9.12594H1.48635C1.19034 9.12594 0.951013 8.88662 0.951013 8.5906C0.951013 8.29459 1.19034 8.05527 1.48635 8.05527H1.93352V9.12594ZM1.93352 14.1455H1.48635C1.19034 14.1455 0.951013 13.9062 0.951013 13.6102C0.951013 13.3142 1.19034 13.0749 1.48635 13.0749H1.93352V14.1455ZM1.93352 19.1651H1.48635C1.19034 19.1651 0.951013 18.9258 0.951013 18.6298C0.951013 18.3338 1.19034 18.0944 1.48635 18.0944H1.93352V19.1651ZM1.93352 24.1847H1.48635C1.19034 24.1847 0.951013 23.9454 0.951013 23.6494C0.951013 23.3533 1.19034 23.114 1.48635 23.114H1.93352V24.1847ZM1.93352 29.2106H1.48635C1.19034 29.2106 0.951013 28.9713 0.951013 28.6752C0.951013 28.3792 1.19034 28.1399 1.48635 28.1399H1.93352V29.2106ZM26.0489 31.0307C26.0489 31.1756 25.9293 31.2952 25.7907 31.2952H3.14905C3.00419 31.2952 2.89083 31.1756 2.89083 31.0307V1.21553C2.89083 1.07068 3.01049 0.957311 3.14905 0.957311H25.7844C25.9293 0.957311 26.0426 1.07697 26.0426 1.21553V31.0307H26.0489Z" fill="black"/>
<path d="M9.18948 25.1168L9.18319 23.0825L8.18179 24.7578H7.8291L6.8277 23.1203V25.1168H6.09082V21.7158H6.73952L8.01174 23.832L9.26506 21.7158H9.91377L9.92006 25.1168H9.18948Z" fill="black"/>
<path d="M13.4094 24.487V25.1168H10.7705V21.7158H13.3401V22.3456H11.5515V23.0825H13.1323V23.6934H11.5515V24.4807H13.4094V24.487Z" fill="black"/>
<path d="M17.1625 21.7158V25.1168H16.3752V23.7186H14.8259V25.1168H14.0449V21.7158H14.8322V23.0573H16.3752V21.7158H17.1625Z" fill="black"/>
<path d="M21.9432 21.8858C22.2141 22.0369 22.4345 22.2511 22.5857 22.5156C22.7431 22.7801 22.8187 23.0824 22.8187 23.4162C22.8187 23.75 22.7431 24.0523 22.5857 24.3169C22.4282 24.5814 22.2141 24.7955 21.9432 24.9467C21.6724 25.0978 21.3638 25.1734 21.0237 25.1734C20.7214 25.1734 20.438 25.1104 20.1861 24.9907C19.9342 24.8711 19.7263 24.701 19.5626 24.4806C19.3988 24.2602 19.2917 24.0145 19.2477 23.7311H18.8005V25.1167H18.0195V21.7157H18.8005V23.0509H19.2603C19.3106 22.7801 19.4177 22.5345 19.5815 22.3267C19.7452 22.1125 19.953 21.9488 20.1987 21.8354C20.4443 21.722 20.7214 21.6591 21.0174 21.6591C21.3638 21.6528 21.6661 21.7283 21.9432 21.8858ZM21.5339 24.3672C21.685 24.2791 21.8047 24.1468 21.8929 23.9831C21.981 23.8193 22.0251 23.6304 22.0251 23.4162C22.0251 23.2021 21.981 23.0131 21.8929 22.8494C21.8047 22.6856 21.685 22.5534 21.5339 22.4652C21.3827 22.377 21.2127 22.3267 21.0237 22.3267C20.8348 22.3267 20.6647 22.3707 20.5136 22.4652C20.3624 22.5534 20.2428 22.6856 20.1546 22.8494C20.0664 23.0131 20.0223 23.2021 20.0223 23.4162C20.0223 23.6304 20.0664 23.8193 20.1546 23.9831C20.2428 24.1468 20.3624 24.2791 20.5136 24.3672C20.6647 24.4554 20.8348 24.5058 21.0237 24.5058C21.2127 24.5058 21.3827 24.4617 21.5339 24.3672Z" fill="black"/>
</svg>
